# xmcd
#
# Track frame offsets: 
#        150
#        16446
#        36124
#        51269
#        69367
#        90490
#        108614
#        127574
#        141765
#
# Disc length: 2204 seconds
#
# Revision: 0
# Processed by: cddbd v1.5.2PL0 Copyright (c) Steve Scherf et al.
# Submitted via: ExactAudioCopy v0.99pb4
#
DISCID=6f089a09
DTITLE=Dirty Trainload - Rising Rust
DYEAR=2007
DGENRE=Blues
TTITLE0=I asked for water, she brought me gasoline
TTITLE1=Police car
TTITLE2=Rising rust
TTITLE3=Waiting all the time
TTITLE4=TV screen watcher
TTITLE5=Luna-tic
TTITLE6=These boots are made for walking
TTITLE7=Mad man blues
TTITLE8=Bad thoughts about Irene
EXTD=
EXTT0=
EXTT1=
EXTT2=
EXTT3=
EXTT4=
EXTT5=
EXTT6=
EXTT7=
EXTT8=
PLAYORDER=
